<svg xmlns="http://www.w3.org/2000/svg" width="1200" height="630" viewBox="0 0 1200 630">
  <defs>
    <radialGradient id="bg" cx="50%" cy="-10%" r="90%">
      <stop offset="0%" stop-color="#161b22"/>
      <stop offset="45%" stop-color="#0d1117"/>
      <stop offset="100%" stop-color="#010409"/>
    </radialGradient>
    <linearGradient id="grad" x1="0" y1="0" x2="1" y2="0">
      <stop offset="0%" stop-color="#58a6ff"/>
      <stop offset="100%" stop-color="#a371f7"/>
    </linearGradient>
  </defs>

  <rect width="1200" height="630" fill="url(#bg)"/>

  <!-- GitHub mark -->
  <g transform="translate(600 150)">
    <g transform="translate(-46 -46) scale(5.75)">
      <path fill="#e6edf3" d="M8 0c4.42 0 8 3.58 8 8a8.013 8.013 0 0 1-5.45 7.59c-.4.08-.55-.17-.55-.38 0-.27.01-1.13.01-2.2 0-.75-.25-1.23-.54-1.48 1.78-.2 3.65-.88 3.65-3.95 0-.88-.31-1.59-.82-2.15.08-.2.36-1.02-.08-2.12 0 0-.67-.22-2.2.82-.64-.18-1.32-.27-2-.27-.68 0-1.36.09-2 .27-1.53-1.03-2.2-.82-2.2-.82-.44 1.1-.16 1.92-.08 2.12-.51.56-.82 1.28-.82 2.15 0 3.06 1.86 3.75 3.64 3.95-.23.2-.44.55-.51 1.07-.46.21-1.61.55-2.33-.66-.15-.24-.6-.83-1.23-.82-.67.01-.27.38.01.53.34.19.73.9.82 1.13.16.45.68 1.31 2.69.94 0 .67.01 1.3.01 1.49 0 .21-.15.45-.55.38A7.995 7.995 0 0 1 0 8c0-4.42 3.58-8 8-8Z"/>
    </g>
  </g>

  <text x="600" y="360" text-anchor="middle" xml:space="preserve" font-family="-apple-system, BlinkMacSystemFont, 'Segoe UI', Helvetica, Arial, sans-serif" font-size="58" font-weight="800" letter-spacing="-1.5">
    <tspan fill="#e6edf3">Let Me </tspan><tspan fill="url(#grad)">GitHub</tspan><tspan fill="#e6edf3"> Search</tspan>
  </text>
  <text x="600" y="425" text-anchor="middle" font-family="-apple-system, BlinkMacSystemFont, 'Segoe UI', Helvetica, Arial, sans-serif" font-size="58" font-weight="800" letter-spacing="-1.5" fill="#e6edf3">That For You</text>

  <text x="600" y="500" text-anchor="middle" font-family="-apple-system, BlinkMacSystemFont, 'Segoe UI', Helvetica, Arial, sans-serif" font-size="27" font-weight="500" fill="#7d8590">You could have searched this yourself. But here we are.</text>

  <text x="600" y="575" text-anchor="middle" font-family="ui-monospace, SFMono-Regular, Menlo, Consolas, monospace" font-size="24" font-weight="600" fill="#58a6ff">lmgstfy.fun</text>
</svg>
